<svg version="1.1" id="Layer_1" xmlns="http://www.w3.org/2000/svg" xmlns:xlink="http://www.w3.org/1999/xlink" x="0px" y="0px"
	 width="100%" viewBox="0 0 1890 1890" enable-background="new 0 0 1890 1890" xml:space="preserve">
<path fill="#000000" opacity="1.000000" stroke="none" 
	d="
M1248.000000,1891.000000 
	C832.000000,1891.000000 416.500000,1891.000000 1.000000,1891.000000 
	C1.000000,1261.000000 1.000000,631.000000 1.000000,1.000000 
	C631.000000,1.000000 1261.000000,1.000000 1891.000000,1.000000 
	C1891.000000,631.000000 1891.000000,1261.000000 1891.000000,1891.000000 
	C1676.833374,1891.000000 1462.666626,1891.000000 1248.000000,1891.000000 
M689.970825,243.539963 
	C675.086426,249.450180 659.959534,254.823425 645.379883,261.408386 
	C627.673950,269.405334 610.197266,277.988464 593.053650,287.128693 
	C577.178040,295.592834 561.373047,304.378937 546.434631,314.365875 
	C524.811035,328.822021 503.593872,343.963898 482.964325,359.804352 
	C466.638184,372.340485 450.960297,385.835419 435.907166,399.882538 
	C420.982574,413.809692 407.055939,428.823486 392.970215,443.625824 
	C384.594086,452.428131 376.324371,461.399567 368.776001,470.905762 
	C357.292786,485.367340 346.329285,500.250671 335.410156,515.149170 
	C315.671661,542.081177 298.463501,570.613708 283.070740,600.209656 
	C275.886475,614.023071 269.238220,628.147766 263.032562,642.429260 
	C255.629562,659.466309 248.492020,676.650085 242.081161,694.079834 
	C231.597534,722.582458 222.761887,751.621643 216.864426,781.463928 
	C212.761459,802.225708 208.463806,822.968018 205.160599,843.862488 
	C202.690475,859.487427 201.298615,875.313354 200.107330,891.101135 
	C198.952789,906.402100 198.423996,921.763489 198.094223,937.108521 
	C197.906357,945.849609 198.619461,954.613159 199.010651,963.362793 
	C199.636795,977.368469 200.052551,991.391663 201.081085,1005.368835 
	C202.027557,1018.230652 203.294922,1031.093628 205.090775,1043.861938 
	C207.368210,1060.054199 209.662689,1076.295166 213.140518,1092.255615 
	C218.204758,1115.496338 223.748764,1138.668335 230.145081,1161.574463 
	C239.036316,1193.415283 250.925049,1224.243164 264.807159,1254.243408 
	C271.757050,1269.262451 279.161926,1284.103516 287.077637,1298.634644 
	C295.838226,1314.716797 304.684296,1330.840942 314.817566,1346.065430 
	C329.046509,1367.443237 344.019135,1388.371948 359.580231,1408.802368 
	C371.449799,1424.386108 384.013519,1439.579834 397.539917,1453.731689 
	C419.824371,1477.046753 442.377136,1500.196045 467.787079,1520.243896 
	C484.234650,1533.220703 500.257172,1546.864502 517.570068,1558.584595 
	C540.195251,1573.900757 563.362061,1588.605835 587.304810,1601.733765 
	C611.347290,1614.916504 636.208618,1626.839722 661.490295,1637.459839 
	C684.786377,1647.245972 708.895020,1655.281738 733.044556,1662.808960 
	C769.278809,1674.103027 806.481140,1681.484741 844.026794,1686.899902 
	C859.693237,1689.159424 875.489929,1690.673950 891.276184,1691.898926 
	C905.910950,1693.034668 920.605286,1693.605347 935.283936,1693.901611 
	C944.692200,1694.091553 954.125610,1693.451050 963.537292,1692.975464 
	C981.629944,1692.061279 999.725159,1691.148560 1017.799744,1689.942383 
	C1028.069946,1689.257080 1038.369263,1688.435669 1048.534180,1686.882080 
	C1063.235352,1684.635010 1077.940430,1682.171021 1092.438965,1678.893921 
	C1115.644043,1673.649048 1138.858276,1668.289185 1161.746460,1661.835571 
	C1193.711426,1652.822388 1224.706421,1640.928345 1254.840454,1626.944946 
	C1269.848877,1619.980469 1284.762573,1612.739746 1299.300293,1604.852173 
	C1314.981079,1596.343994 1330.661987,1587.664307 1345.461304,1577.744263 
	C1367.067261,1563.261475 1388.314331,1548.159912 1408.907104,1532.275391 
	C1425.731201,1519.297852 1441.988770,1505.436890 1457.401489,1490.812622 
	C1482.910645,1466.608521 1507.612793,1441.538696 1529.008545,1413.479614 
	C1539.126587,1400.210327 1549.779419,1387.278809 1558.963989,1373.383911 
	C1573.242065,1351.783813 1587.456787,1330.030762 1599.885010,1307.349121 
	C1613.604370,1282.311157 1626.393799,1256.624634 1637.513184,1230.342529 
	C1647.540039,1206.643066 1655.383301,1181.951050 1663.074097,1157.348022 
	C1673.918701,1122.656616 1681.523315,1087.167847 1685.990967,1051.055542 
	C1688.052002,1034.396729 1690.474609,1017.763184 1691.860352,1001.045776 
	C1693.168823,985.261169 1693.568237,969.386719 1693.906860,953.541931 
	C1694.093750,944.800781 1693.335693,936.039368 1692.999268,927.287170 
	C1692.669312,918.701599 1692.585571,910.097473 1691.945190,901.534973 
	C1690.809814,886.350952 1689.778198,871.136658 1687.884888,856.037659 
	C1685.727417,838.831421 1683.442993,821.573486 1679.829712,804.633179 
	C1674.532227,779.796387 1668.594604,755.059631 1661.858032,730.575195 
	C1652.787354,697.607239 1640.236084,665.829956 1625.899414,634.806580 
	C1619.024902,619.930481 1611.714722,605.222229 1603.868774,590.837952 
	C1595.634521,575.741943 1587.220581,560.654846 1577.631348,546.407776 
	C1563.106323,524.827332 1547.958984,503.624847 1532.196167,482.932007 
	C1520.426147,467.480591 1507.977783,452.407501 1494.564819,438.377014 
	C1472.277832,415.064056 1449.730347,391.911743 1424.324097,371.857727 
	C1409.540039,360.188049 1394.834839,348.392761 1379.640625,337.273682 
	C1351.796265,316.897247 1322.405396,298.913910 1291.764526,283.062378 
	C1277.935669,275.908325 1263.831299,269.225372 1249.551392,263.020416 
	C1232.514771,255.617523 1215.324219,248.499496 1197.898438,242.077103 
	C1169.401001,231.574203 1140.353760,222.765976 1110.515747,216.855362 
	C1089.755737,212.742996 1069.009888,208.460983 1048.114624,205.160187 
	C1032.489380,202.691849 1016.664368,201.284698 1000.875793,200.110016 
	C985.241516,198.946838 969.546570,198.433716 953.868347,198.092834 
	C945.294067,197.906403 936.694214,198.571945 928.114624,199.019485 
	C910.189514,199.954514 892.242676,200.659607 874.357544,202.110367 
	C860.734192,203.215439 847.115967,204.863541 833.632202,207.095917 
	C814.033875,210.340607 794.463013,213.888458 775.053406,218.103470 
	C746.319580,224.343307 718.340210,233.313858 689.970825,243.539963 
z"/>
<path fill="#FFFFFF" opacity="1.000000" stroke="none" 
	d="
M690.289307,243.288757 
	C718.340210,233.313858 746.319580,224.343307 775.053406,218.103470 
	C794.463013,213.888458 814.033875,210.340607 833.632202,207.095917 
	C847.115967,204.863541 860.734192,203.215439 874.357544,202.110367 
	C892.242676,200.659607 910.189514,199.954514 928.114624,199.019485 
	C936.694214,198.571945 945.294067,197.906403 953.868347,198.092834 
	C969.546570,198.433716 985.241516,198.946838 1000.875793,200.110016 
	C1016.664368,201.284698 1032.489380,202.691849 1048.114624,205.160187 
	C1069.009888,208.460983 1089.755737,212.742996 1110.515747,216.855362 
	C1140.353760,222.765976 1169.401001,231.574203 1197.898438,242.077103 
	C1215.324219,248.499496 1232.514771,255.617523 1249.551392,263.020416 
	C1263.831299,269.225372 1277.935669,275.908325 1291.764526,283.062378 
	C1322.405396,298.913910 1351.796265,316.897247 1379.640625,337.273682 
	C1394.834839,348.392761 1409.540039,360.188049 1424.324097,371.857727 
	C1449.730347,391.911743 1472.277832,415.064056 1494.564819,438.377014 
	C1507.977783,452.407501 1520.426147,467.480591 1532.196167,482.932007 
	C1547.958984,503.624847 1563.106323,524.827332 1577.631348,546.407776 
	C1587.220581,560.654846 1595.634521,575.741943 1603.868774,590.837952 
	C1611.714722,605.222229 1619.024902,619.930481 1625.899414,634.806580 
	C1640.236084,665.829956 1652.787354,697.607239 1661.858032,730.575195 
	C1668.594604,755.059631 1674.532227,779.796387 1679.829712,804.633179 
	C1683.442993,821.573486 1685.727417,838.831421 1687.884888,856.037659 
	C1689.778198,871.136658 1690.809814,886.350952 1691.945190,901.534973 
	C1692.585571,910.097473 1692.669312,918.701599 1692.999268,927.287170 
	C1693.335693,936.039368 1694.093750,944.800781 1693.906860,953.541931 
	C1693.568237,969.386719 1693.168823,985.261169 1691.860352,1001.045776 
	C1690.474609,1017.763184 1688.052002,1034.396729 1685.990967,1051.055542 
	C1681.523315,1087.167847 1673.918701,1122.656616 1663.074097,1157.348022 
	C1655.383301,1181.951050 1647.540039,1206.643066 1637.513184,1230.342529 
	C1626.393799,1256.624634 1613.604370,1282.311157 1599.885010,1307.349121 
	C1587.456787,1330.030762 1573.242065,1351.783813 1558.963989,1373.383911 
	C1549.779419,1387.278809 1539.126587,1400.210327 1529.008545,1413.479614 
	C1507.612793,1441.538696 1482.910645,1466.608521 1457.401489,1490.812622 
	C1441.988770,1505.436890 1425.731201,1519.297852 1408.907104,1532.275391 
	C1388.314331,1548.159912 1367.067261,1563.261475 1345.461304,1577.744263 
	C1330.661987,1587.664307 1314.981079,1596.343994 1299.300293,1604.852173 
	C1284.762573,1612.739746 1269.848877,1619.980469 1254.840454,1626.944946 
	C1224.706421,1640.928345 1193.711426,1652.822388 1161.746460,1661.835571 
	C1138.858276,1668.289185 1115.644043,1673.649048 1092.438965,1678.893921 
	C1077.940430,1682.171021 1063.235352,1684.635010 1048.534180,1686.882080 
	C1038.369263,1688.435669 1028.069946,1689.257080 1017.799744,1689.942383 
	C999.725159,1691.148560 981.629944,1692.061279 963.537292,1692.975464 
	C954.125610,1693.451050 944.692200,1694.091553 935.283936,1693.901611 
	C920.605286,1693.605347 905.910950,1693.034668 891.276184,1691.898926 
	C875.489929,1690.673950 859.693237,1689.159424 844.026794,1686.899902 
	C806.481140,1681.484741 769.278809,1674.103027 733.044556,1662.808960 
	C708.895020,1655.281738 684.786377,1647.245972 661.490295,1637.459839 
	C636.208618,1626.839722 611.347290,1614.916504 587.304810,1601.733765 
	C563.362061,1588.605835 540.195251,1573.900757 517.570068,1558.584595 
	C500.257172,1546.864502 484.234650,1533.220703 467.787079,1520.243896 
	C442.377136,1500.196045 419.824371,1477.046753 397.539917,1453.731689 
	C384.013519,1439.579834 371.449799,1424.386108 359.580231,1408.802368 
	C344.019135,1388.371948 329.046509,1367.443237 314.817566,1346.065430 
	C304.684296,1330.840942 295.838226,1314.716797 287.077637,1298.634644 
	C279.161926,1284.103516 271.757050,1269.262451 264.807159,1254.243408 
	C250.925049,1224.243164 239.036316,1193.415283 230.145081,1161.574463 
	C223.748764,1138.668335 218.204758,1115.496338 213.140518,1092.255615 
	C209.662689,1076.295166 207.368210,1060.054199 205.090775,1043.861938 
	C203.294922,1031.093628 202.027557,1018.230652 201.081085,1005.368835 
	C200.052551,991.391663 199.636795,977.368469 199.010651,963.362793 
	C198.619461,954.613159 197.906357,945.849609 198.094223,937.108521 
	C198.423996,921.763489 198.952789,906.402100 200.107330,891.101135 
	C201.298615,875.313354 202.690475,859.487427 205.160599,843.862488 
	C208.463806,822.968018 212.761459,802.225708 216.864426,781.463928 
	C222.761887,751.621643 231.597534,722.582458 242.081161,694.079834 
	C248.492020,676.650085 255.629562,659.466309 263.032562,642.429260 
	C269.238220,628.147766 275.886475,614.023071 283.070740,600.209656 
	C298.463501,570.613708 315.671661,542.081177 335.410156,515.149170 
	C346.329285,500.250671 357.292786,485.367340 368.776001,470.905762 
	C376.324371,461.399567 384.594086,452.428131 392.970215,443.625824 
	C407.055939,428.823486 420.982574,413.809692 435.907166,399.882538 
	C450.960297,385.835419 466.638184,372.340485 482.964325,359.804352 
	C503.593872,343.963898 524.811035,328.822021 546.434631,314.365875 
	C561.373047,304.378937 577.178040,295.592834 593.053650,287.128693 
	C610.197266,277.988464 627.673950,269.405334 645.379883,261.408386 
	C659.959534,254.823425 675.086426,249.450180 690.289307,243.288757 
M1127.000000,857.500000 
	C1127.000000,750.169861 1127.000000,642.839722 1127.000244,535.509583 
	C1127.000244,529.001526 1127.001587,529.000244 1133.542236,529.000183 
	C1218.874756,528.999878 1304.207275,529.000000 1389.539795,529.000000 
	C1391.300659,529.000000 1393.061523,529.000000 1394.692627,529.000000 
	C1394.692627,508.986481 1394.692627,489.580475 1394.692627,470.308655 
	C1094.648804,470.308655 794.912415,470.308655 495.312927,470.308655 
	C495.312927,490.024841 495.312927,509.430969 495.312927,529.000000 
	C497.443329,529.000000 499.261719,529.000000 501.080139,529.000000 
	C610.912415,529.000000 720.744690,528.999878 830.576965,529.000244 
	C836.998718,529.000244 837.019348,529.001953 836.996887,535.628784 
	C836.593018,654.673462 836.010498,773.717834 835.822388,892.762817 
	C835.617004,1022.761230 835.890259,1152.760498 835.642822,1282.758667 
	C835.608765,1300.676758 837.451477,1318.658569 834.194702,1336.583008 
	C833.035034,1342.965820 833.700439,1349.646973 832.132263,1356.168213 
	C830.501526,1362.949829 830.212341,1370.043335 828.810486,1376.892700 
	C824.353882,1398.666870 815.688477,1418.397461 799.977112,1434.588135 
	C789.686218,1445.192993 777.540039,1453.001709 763.632202,1457.777222 
	C755.892700,1460.434814 747.648682,1461.607056 739.869873,1464.170288 
	C730.566833,1467.235718 721.084045,1467.958374 711.448059,1467.993042 
	C705.973877,1468.012695 700.480042,1467.654297 695.028687,1467.998413 
	C677.635864,1469.096191 660.853882,1465.340210 644.499878,1460.524048 
	C617.983521,1452.715088 594.160889,1439.490723 573.576599,1420.850708 
	C573.208740,1421.142456 572.876099,1421.288452 572.725708,1421.542480 
	C563.558350,1437.017456 554.360291,1452.475098 545.371582,1468.053345 
	C544.862183,1468.936157 545.622864,1471.477295 546.565735,1472.130493 
	C556.867676,1479.269409 566.840027,1487.091797 577.842834,1492.966187 
	C598.236084,1503.853760 620.056824,1511.298340 642.878357,1515.364624 
	C656.914490,1517.865723 670.998291,1521.157349 685.152893,1521.703369 
	C710.329529,1522.674561 735.585693,1522.839844 760.616638,1518.116211 
	C777.293030,1514.968994 793.302185,1510.080933 808.363953,1502.397705 
	C823.568848,1494.641357 837.148926,1484.708008 848.899414,1472.072998 
	C863.541931,1456.328003 874.421631,1438.383667 881.041748,1418.161621 
	C885.443359,1404.716187 888.400085,1390.703857 890.862366,1376.744019 
	C893.316162,1362.832153 894.582397,1348.691162 895.895264,1334.606445 
	C896.506470,1328.049072 895.998413,1328.000244 902.434814,1328.000244 
	C1063.933228,1328.000000 1225.431763,1328.000000 1386.930176,1328.000000 
	C1388.868408,1328.000000 1390.806519,1328.000000 1392.731445,1328.000000 
	C1392.731445,1308.064819 1392.731445,1288.659424 1392.731445,1269.000000 
	C1390.663086,1269.000000 1388.854248,1269.000000 1387.045532,1269.000000 
	C1302.546387,1269.000000 1218.047119,1269.000000 1133.547974,1268.999756 
	C1127.001587,1268.999634 1127.000366,1268.998535 1127.000366,1262.496094 
	C1127.000000,1127.830688 1127.000000,993.165344 1127.000000,857.500000 
z"/>
<path fill="#000000" opacity="1.000000" stroke="none" 
	d="
M1127.000000,858.000000 
	C1127.000000,993.165344 1127.000000,1127.830688 1127.000366,1262.496094 
	C1127.000366,1268.998535 1127.001587,1268.999634 1133.547974,1268.999756 
	C1218.047119,1269.000000 1302.546387,1269.000000 1387.045532,1269.000000 
	C1388.854248,1269.000000 1390.663086,1269.000000 1392.731445,1269.000000 
	C1392.731445,1288.659424 1392.731445,1308.064819 1392.731445,1328.000000 
	C1390.806519,1328.000000 1388.868408,1328.000000 1386.930176,1328.000000 
	C1225.431763,1328.000000 1063.933228,1328.000000 902.434814,1328.000244 
	C895.998413,1328.000244 896.506470,1328.049072 895.895264,1334.606445 
	C894.582397,1348.691162 893.316162,1362.832153 890.862366,1376.744019 
	C888.400085,1390.703857 885.443359,1404.716187 881.041748,1418.161621 
	C874.421631,1438.383667 863.541931,1456.328003 848.899414,1472.072998 
	C837.148926,1484.708008 823.568848,1494.641357 808.363953,1502.397705 
	C793.302185,1510.080933 777.293030,1514.968994 760.616638,1518.116211 
	C735.585693,1522.839844 710.329529,1522.674561 685.152893,1521.703369 
	C670.998291,1521.157349 656.914490,1517.865723 642.878357,1515.364624 
	C620.056824,1511.298340 598.236084,1503.853760 577.842834,1492.966187 
	C566.840027,1487.091797 556.867676,1479.269409 546.565735,1472.130493 
	C545.622864,1471.477295 544.862183,1468.936157 545.371582,1468.053345 
	C554.360291,1452.475098 563.558350,1437.017456 572.725708,1421.542480 
	C572.876099,1421.288452 573.208740,1421.142456 573.576599,1420.850708 
	C594.160889,1439.490723 617.983521,1452.715088 644.499878,1460.524048 
	C660.853882,1465.340210 677.635864,1469.096191 695.028687,1467.998413 
	C700.480042,1467.654297 705.973877,1468.012695 711.448059,1467.993042 
	C721.084045,1467.958374 730.566833,1467.235718 739.869873,1464.170288 
	C747.648682,1461.607056 755.892700,1460.434814 763.632202,1457.777222 
	C777.540039,1453.001709 789.686218,1445.192993 799.977112,1434.588135 
	C815.688477,1418.397461 824.353882,1398.666870 828.810486,1376.892700 
	C830.212341,1370.043335 830.501526,1362.949829 832.132263,1356.168213 
	C833.700439,1349.646973 833.035034,1342.965820 834.194702,1336.583008 
	C837.451477,1318.658569 835.608765,1300.676758 835.642822,1282.758667 
	C835.890259,1152.760498 835.617004,1022.761230 835.822388,892.762817 
	C836.010498,773.717834 836.593018,654.673462 836.996887,535.628784 
	C837.019348,529.001953 836.998718,529.000244 830.576965,529.000244 
	C720.744690,528.999878 610.912415,529.000000 501.080139,529.000000 
	C499.261719,529.000000 497.443329,529.000000 495.312927,529.000000 
	C495.312927,509.430969 495.312927,490.024841 495.312927,470.308655 
	C794.912415,470.308655 1094.648804,470.308655 1394.692627,470.308655 
	C1394.692627,489.580475 1394.692627,508.986481 1394.692627,529.000000 
	C1393.061523,529.000000 1391.300659,529.000000 1389.539795,529.000000 
	C1304.207275,529.000000 1218.874756,528.999878 1133.542236,529.000183 
	C1127.001587,529.000244 1127.000244,529.001526 1127.000244,535.509583 
	C1127.000000,642.839722 1127.000000,750.169861 1127.000000,858.000000 
M1068.000000,716.500000 
	C1068.000000,656.007080 1067.944336,595.513977 1068.105469,535.021484 
	C1068.118408,530.184814 1066.792725,528.879517 1061.970093,528.894653 
	C1008.643372,529.062012 955.315735,529.065369 901.989075,528.890503 
	C897.096130,528.874451 895.900085,530.296936 895.902283,535.062134 
	C896.013367,777.701050 896.014099,1020.340027 895.898193,1262.979004 
	C895.895874,1267.814087 897.207703,1269.120483 902.030029,1269.105347 
	C955.190125,1268.937744 1008.350891,1269.000122 1061.511475,1268.999634 
	C1067.998535,1268.999634 1067.999756,1268.998291 1067.999756,1262.437744 
	C1068.000000,1080.791870 1068.000000,899.145935 1068.000000,716.500000 
z"/>
<path fill="#FFFFFF" opacity="1.000000" stroke="none" 
	d="
M1068.000000,717.000000 
	C1068.000000,899.145935 1068.000000,1080.791870 1067.999756,1262.437744 
	C1067.999756,1268.998291 1067.998535,1268.999634 1061.511475,1268.999634 
	C1008.350891,1269.000122 955.190125,1268.937744 902.030029,1269.105347 
	C897.207703,1269.120483 895.895874,1267.814087 895.898193,1262.979004 
	C896.014099,1020.340027 896.013367,777.701050 895.902283,535.062134 
	C895.900085,530.296936 897.096130,528.874451 901.989075,528.890503 
	C955.315735,529.065369 1008.643372,529.062012 1061.970093,528.894653 
	C1066.792725,528.879517 1068.118408,530.184814 1068.105469,535.021484 
	C1067.944336,595.513977 1068.000000,656.007080 1068.000000,717.000000 
z"/>
</svg>